# xmcd
#
# Track frame offsets: 
#        150
#        17808
#        36173
#        56704
#        73719
#        93683
#        111272
#        129697
#        142259
#        162507
#        178071
#        190947
#        208527
#
# Disc length: 3659 seconds
#
# Revision: 0
# Processed by: cddbd v1.5.1PL0 Copyright (c) Steve Scherf et al.
# Submitted via: ExactAudioCopy v0.95a4
#
DISCID=cc0e490d
DTITLE=Fall In Blues - Love Sick
DYEAR=2002
DGENRE=Blues
TTITLE0=Love Sick (Acoustic Version)
TTITLE1=City Blues
TTITLE2=Jesus On The Mainline
TTITLE3=Deep Water Blues
TTITLE4=Midnight Blues
TTITLE5=Going To Brownsville
TTITLE6=Missing You
TTITLE7=Proud
TTITLE8=I Can't Help Myself
TTITLE9=Red Fox Dawn
TTITLE10=Far Away
TTITLE11=Station To Station
TTITLE12=Love Sick
EXTD=
EXTT0=
EXTT1=
EXTT2=
EXTT3=
EXTT4=
EXTT5=
EXTT6=
EXTT7=
EXTT8=
EXTT9=
EXTT10=
EXTT11=
EXTT12=
PLAYORDER=
